<mxfile host="65bd71144e">
    <diagram id="BmdIyCTguXosixRM9kqd" name="Page-1">
        <mxGraphModel dx="1103" dy="774" grid="1" gridSize="10" guides="1" tooltips="1" connect="1" arrows="1" fold="1" page="1" pageScale="1" pageWidth="827" pageHeight="1169" math="0" shadow="0">
            <root>
                <mxCell id="0"/>
                <mxCell id="1" parent="0"/>
                <mxCell id="12" value="" style="rounded=0;whiteSpace=wrap;html=1;" vertex="1" parent="1">
                    <mxGeometry x="143" y="115" width="527" height="255" as="geometry"/>
                </mxCell>
                <mxCell id="2" value="cpu" style="rounded=0;whiteSpace=wrap;html=1;" vertex="1" parent="1">
                    <mxGeometry x="190" y="250" width="50" height="60" as="geometry"/>
                </mxCell>
                <mxCell id="3" value="L1&lt;br&gt;64kb" style="rounded=0;whiteSpace=wrap;html=1;" vertex="1" parent="1">
                    <mxGeometry x="270" y="250" width="36" height="60" as="geometry"/>
                </mxCell>
                <mxCell id="5" value="L2&lt;br&gt;512kb" style="rounded=0;whiteSpace=wrap;html=1;" vertex="1" parent="1">
                    <mxGeometry x="320" y="250" width="36" height="60" as="geometry"/>
                </mxCell>
                <mxCell id="6" value="L3&lt;br&gt;8mb" style="rounded=0;whiteSpace=wrap;html=1;" vertex="1" parent="1">
                    <mxGeometry x="370" y="250" width="36" height="60" as="geometry"/>
                </mxCell>
                <mxCell id="7" value="barramento&lt;br&gt;ddr4" style="rounded=0;whiteSpace=wrap;html=1;fillColor=#a20025;fontColor=#ffffff;strokeColor=#6F0000;" vertex="1" parent="1">
                    <mxGeometry x="420" y="220" width="60" height="110" as="geometry"/>
                </mxCell>
                <mxCell id="8" value="memoria" style="text;html=1;strokeColor=none;fillColor=none;align=center;verticalAlign=middle;whiteSpace=wrap;rounded=0;" vertex="1" parent="1">
                    <mxGeometry x="308" y="200" width="60" height="30" as="geometry"/>
                </mxCell>
                <mxCell id="9" value="pente de memoria, onde o so bate pra acessar a memoria" style="text;html=1;strokeColor=none;fillColor=none;align=center;verticalAlign=middle;whiteSpace=wrap;rounded=0;" vertex="1" parent="1">
                    <mxGeometry x="390" y="150" width="120" height="30" as="geometry"/>
                </mxCell>
                <mxCell id="10" value="ssd" style="rounded=0;whiteSpace=wrap;html=1;fillColor=#1ba1e2;fontColor=#ffffff;strokeColor=#006EAF;" vertex="1" parent="1">
                    <mxGeometry x="500" y="220" width="60" height="110" as="geometry"/>
                </mxCell>
                <mxCell id="11" value="memoria swap no ssd, salva em disco" style="text;html=1;strokeColor=none;fillColor=none;align=center;verticalAlign=middle;whiteSpace=wrap;rounded=0;" vertex="1" parent="1">
                    <mxGeometry x="490" y="190" width="120" height="30" as="geometry"/>
                </mxCell>
                <mxCell id="17" style="edgeStyle=none;html=1;entryX=0;entryY=0.5;entryDx=0;entryDy=0;" edge="1" parent="1" source="13" target="14">
                    <mxGeometry relative="1" as="geometry"/>
                </mxCell>
                <mxCell id="18" style="edgeStyle=none;html=1;entryX=0;entryY=0.5;entryDx=0;entryDy=0;" edge="1" parent="1" source="13" target="15">
                    <mxGeometry relative="1" as="geometry"/>
                </mxCell>
                <mxCell id="19" style="edgeStyle=none;html=1;entryX=0;entryY=0.5;entryDx=0;entryDy=0;" edge="1" parent="1" source="13" target="16">
                    <mxGeometry relative="1" as="geometry"/>
                </mxCell>
                <mxCell id="13" value="EndereÃ§os&lt;br&gt;A&lt;br&gt;B&lt;br&gt;C" style="rounded=1;whiteSpace=wrap;html=1;" vertex="1" parent="1">
                    <mxGeometry x="70" y="480" width="120" height="60" as="geometry"/>
                </mxCell>
                <mxCell id="24" style="edgeStyle=none;html=1;entryX=0;entryY=0.5;entryDx=0;entryDy=0;" edge="1" parent="1" source="14" target="22">
                    <mxGeometry relative="1" as="geometry"/>
                </mxCell>
                <mxCell id="14" value="A" style="rounded=1;whiteSpace=wrap;html=1;" vertex="1" parent="1">
                    <mxGeometry x="368" y="460" width="120" height="60" as="geometry"/>
                </mxCell>
                <mxCell id="27" style="edgeStyle=none;html=1;entryX=0;entryY=0.5;entryDx=0;entryDy=0;" edge="1" parent="1" source="15" target="25">
                    <mxGeometry relative="1" as="geometry"/>
                </mxCell>
                <mxCell id="15" value="B" style="rounded=1;whiteSpace=wrap;html=1;" vertex="1" parent="1">
                    <mxGeometry x="356" y="600" width="120" height="60" as="geometry"/>
                </mxCell>
                <mxCell id="28" style="edgeStyle=none;html=1;entryX=0;entryY=0.5;entryDx=0;entryDy=0;" edge="1" parent="1" source="16" target="26">
                    <mxGeometry relative="1" as="geometry"/>
                </mxCell>
                <mxCell id="16" value="C" style="rounded=1;whiteSpace=wrap;html=1;" vertex="1" parent="1">
                    <mxGeometry x="360" y="690" width="120" height="60" as="geometry"/>
                </mxCell>
                <mxCell id="20" value="Memoria Real" style="text;html=1;strokeColor=none;fillColor=none;align=center;verticalAlign=middle;whiteSpace=wrap;rounded=0;" vertex="1" parent="1">
                    <mxGeometry x="400" y="420" width="60" height="30" as="geometry"/>
                </mxCell>
                <mxCell id="21" value="Indices que apontam pra um local na memoria" style="text;html=1;strokeColor=none;fillColor=none;align=center;verticalAlign=middle;whiteSpace=wrap;rounded=0;" vertex="1" parent="1">
                    <mxGeometry x="50" y="440" width="180" height="30" as="geometry"/>
                </mxCell>
                <mxCell id="22" value="A&lt;br&gt;B&lt;br&gt;C" style="rounded=1;whiteSpace=wrap;html=1;" vertex="1" parent="1">
                    <mxGeometry x="580" y="470" width="120" height="60" as="geometry"/>
                </mxCell>
                <mxCell id="23" value="Memoria virtual, para dar falsa impressao q esta vendo toda a memoria do pc.&lt;br&gt;Para isolar processos" style="text;html=1;strokeColor=none;fillColor=none;align=center;verticalAlign=middle;whiteSpace=wrap;rounded=0;" vertex="1" parent="1">
                    <mxGeometry x="530" y="430" width="240" height="30" as="geometry"/>
                </mxCell>
                <mxCell id="25" value="A&lt;br&gt;B&lt;br&gt;C" style="rounded=1;whiteSpace=wrap;html=1;" vertex="1" parent="1">
                    <mxGeometry x="610" y="600" width="120" height="60" as="geometry"/>
                </mxCell>
                <mxCell id="26" value="A&lt;br&gt;B&lt;br&gt;C" style="rounded=1;whiteSpace=wrap;html=1;" vertex="1" parent="1">
                    <mxGeometry x="590" y="680" width="120" height="60" as="geometry"/>
                </mxCell>
                <mxCell id="29" value="Trabalhar diretamente na memoria real pode dar problemas de acessar outras memorias e mexer em diferentes processos" style="text;html=1;strokeColor=none;fillColor=none;align=center;verticalAlign=middle;whiteSpace=wrap;rounded=0;" vertex="1" parent="1">
                    <mxGeometry x="390" y="554.5" width="320" height="30" as="geometry"/>
                </mxCell>
                <mxCell id="30" value="Thread" style="rounded=0;whiteSpace=wrap;html=1;" vertex="1" parent="1">
                    <mxGeometry x="201.5" y="910" width="120" height="60" as="geometry"/>
                </mxCell>
                <mxCell id="31" value="Thread" style="rounded=0;whiteSpace=wrap;html=1;" vertex="1" parent="1">
                    <mxGeometry x="501.5" y="910" width="120" height="60" as="geometry"/>
                </mxCell>
                <mxCell id="32" value="Processo X" style="text;html=1;strokeColor=none;fillColor=none;align=center;verticalAlign=middle;whiteSpace=wrap;rounded=0;" vertex="1" parent="1">
                    <mxGeometry x="211.5" y="870" width="100" height="30" as="geometry"/>
                </mxCell>
                <mxCell id="33" value="Processo Y" style="text;html=1;strokeColor=none;fillColor=none;align=center;verticalAlign=middle;whiteSpace=wrap;rounded=0;" vertex="1" parent="1">
                    <mxGeometry x="511.5" y="870" width="100" height="30" as="geometry"/>
                </mxCell>
                <mxCell id="35" style="edgeStyle=none;html=1;" edge="1" parent="1" source="34" target="32">
                    <mxGeometry relative="1" as="geometry"/>
                </mxCell>
                <mxCell id="34" value="memoria" style="rounded=0;whiteSpace=wrap;html=1;" vertex="1" parent="1">
                    <mxGeometry x="91.5" y="867.5" width="60" height="35" as="geometry"/>
                </mxCell>
                <mxCell id="37" style="edgeStyle=none;html=1;" edge="1" parent="1" source="36" target="33">
                    <mxGeometry relative="1" as="geometry"/>
                </mxCell>
                <mxCell id="36" value="memoria" style="rounded=0;whiteSpace=wrap;html=1;" vertex="1" parent="1">
                    <mxGeometry x="661.5" y="867.5" width="60" height="35" as="geometry"/>
                </mxCell>
                <mxCell id="38" value="nao roda tudo ao memso tempo, toda um pouquinho de cada vez para manter as parada funcionando = CONCORRENCIA" style="text;html=1;strokeColor=none;fillColor=none;align=center;verticalAlign=middle;whiteSpace=wrap;rounded=0;" vertex="1" parent="1">
                    <mxGeometry x="281.5" y="990" width="290" height="30" as="geometry"/>
                </mxCell>
                <mxCell id="39" value="Concorrencia" style="text;html=1;strokeColor=none;fillColor=none;align=center;verticalAlign=middle;whiteSpace=wrap;rounded=0;" vertex="1" parent="1">
                    <mxGeometry x="136.5" y="1110" width="60" height="30" as="geometry"/>
                </mxCell>
                <mxCell id="42" style="edgeStyle=none;html=1;" edge="1" parent="1" source="40">
                    <mxGeometry relative="1" as="geometry">
                        <mxPoint x="166.5" y="1165" as="targetPoint"/>
                    </mxGeometry>
                </mxCell>
                <mxCell id="40" value="Thread 1" style="text;html=1;strokeColor=none;fillColor=none;align=center;verticalAlign=middle;whiteSpace=wrap;rounded=0;" vertex="1" parent="1">
                    <mxGeometry x="36.5" y="1150" width="60" height="30" as="geometry"/>
                </mxCell>
                <mxCell id="41" value="Thread 2" style="text;html=1;strokeColor=none;fillColor=none;align=center;verticalAlign=middle;whiteSpace=wrap;rounded=0;" vertex="1" parent="1">
                    <mxGeometry x="36.5" y="1190" width="60" height="30" as="geometry"/>
                </mxCell>
                <mxCell id="43" value="" style="endArrow=classic;html=1;" edge="1" parent="1">
                    <mxGeometry width="50" height="50" relative="1" as="geometry">
                        <mxPoint x="166.5" y="1210" as="sourcePoint"/>
                        <mxPoint x="246.5" y="1210" as="targetPoint"/>
                    </mxGeometry>
                </mxCell>
                <mxCell id="44" style="edgeStyle=none;html=1;" edge="1" parent="1">
                    <mxGeometry relative="1" as="geometry">
                        <mxPoint x="316.5" y="1164.5" as="targetPoint"/>
                        <mxPoint x="246.5" y="1164.5" as="sourcePoint"/>
                    </mxGeometry>
                </mxCell>
                <mxCell id="45" value="" style="endArrow=classic;html=1;" edge="1" parent="1">
                    <mxGeometry width="50" height="50" relative="1" as="geometry">
                        <mxPoint x="326.5" y="1210" as="sourcePoint"/>
                        <mxPoint x="406.5" y="1210" as="targetPoint"/>
                    </mxGeometry>
                </mxCell>
                <mxCell id="46" value="Paralelismo" style="text;html=1;strokeColor=none;fillColor=none;align=center;verticalAlign=middle;whiteSpace=wrap;rounded=0;" vertex="1" parent="1">
                    <mxGeometry x="526.5" y="1110" width="60" height="30" as="geometry"/>
                </mxCell>
                <mxCell id="47" style="edgeStyle=none;html=1;" edge="1" parent="1" source="48">
                    <mxGeometry relative="1" as="geometry">
                        <mxPoint x="776.5" y="1165" as="targetPoint"/>
                    </mxGeometry>
                </mxCell>
                <mxCell id="48" value="Thread 1" style="text;html=1;strokeColor=none;fillColor=none;align=center;verticalAlign=middle;whiteSpace=wrap;rounded=0;" vertex="1" parent="1">
                    <mxGeometry x="426.5" y="1150" width="60" height="30" as="geometry"/>
                </mxCell>
                <mxCell id="49" value="Thread 2" style="text;html=1;strokeColor=none;fillColor=none;align=center;verticalAlign=middle;whiteSpace=wrap;rounded=0;" vertex="1" parent="1">
                    <mxGeometry x="426.5" y="1190" width="60" height="30" as="geometry"/>
                </mxCell>
                <mxCell id="50" value="" style="endArrow=classic;html=1;" edge="1" parent="1">
                    <mxGeometry width="50" height="50" relative="1" as="geometry">
                        <mxPoint x="486.5" y="1204.5" as="sourcePoint"/>
                        <mxPoint x="776.5" y="1205" as="targetPoint"/>
                    </mxGeometry>
                </mxCell>
                <mxCell id="53" value="" style="endArrow=none;html=1;" edge="1" parent="1">
                    <mxGeometry width="50" height="50" relative="1" as="geometry">
                        <mxPoint x="426.5" y="1240" as="sourcePoint"/>
                        <mxPoint x="426.5" y="1120" as="targetPoint"/>
                    </mxGeometry>
                </mxCell>
                <mxCell id="54" value="Verdade e mentira" style="text;html=1;strokeColor=none;fillColor=none;align=center;verticalAlign=middle;whiteSpace=wrap;rounded=0;" vertex="1" parent="1">
                    <mxGeometry x="526.5" y="1240" width="123.5" height="30" as="geometry"/>
                </mxCell>
                <mxCell id="55" value="As vezes a thread 1 precisa ter acesso a algo q tenha na thread 2, estao correndo no mesmo espaÃ§o de memoria, mas nao tem o acesso a outra, ocorrendo a concorrencia" style="text;html=1;strokeColor=none;fillColor=none;align=center;verticalAlign=middle;whiteSpace=wrap;rounded=0;" vertex="1" parent="1">
                    <mxGeometry x="503.25" y="1300" width="170" height="30" as="geometry"/>
                </mxCell>
                <mxCell id="57" value="A&lt;br&gt;B&lt;br&gt;C" style="rounded=0;whiteSpace=wrap;html=1;" vertex="1" parent="1">
                    <mxGeometry x="59.75" y="1360" width="33.5" height="40" as="geometry"/>
                </mxCell>
                <mxCell id="58" value="1MB por Thread" style="text;html=1;strokeColor=none;fillColor=none;align=center;verticalAlign=middle;whiteSpace=wrap;rounded=0;" vertex="1" parent="1">
                    <mxGeometry x="16.5" y="1330" width="120" height="30" as="geometry"/>
                </mxCell>
                <mxCell id="60" value="&lt;font style=&quot;font-size: 8px;&quot;&gt;Pensar na quantidade de threads&lt;/font&gt;" style="text;html=1;strokeColor=none;fillColor=none;align=center;verticalAlign=middle;whiteSpace=wrap;rounded=0;" vertex="1" parent="1">
                    <mxGeometry x="46.5" y="1290" width="60" height="30" as="geometry"/>
                </mxCell>
                <mxCell id="61" value="Thread" style="rounded=0;whiteSpace=wrap;html=1;" vertex="1" parent="1">
                    <mxGeometry x="183" y="1612.5" width="120" height="60" as="geometry"/>
                </mxCell>
                <mxCell id="62" value="Thread" style="rounded=0;whiteSpace=wrap;html=1;" vertex="1" parent="1">
                    <mxGeometry x="483" y="1612.5" width="120" height="60" as="geometry"/>
                </mxCell>
                <mxCell id="63" value="Processo X" style="text;html=1;strokeColor=none;fillColor=none;align=center;verticalAlign=middle;whiteSpace=wrap;rounded=0;" vertex="1" parent="1">
                    <mxGeometry x="193" y="1572.5" width="100" height="30" as="geometry"/>
                </mxCell>
                <mxCell id="64" value="Processo Y" style="text;html=1;strokeColor=none;fillColor=none;align=center;verticalAlign=middle;whiteSpace=wrap;rounded=0;" vertex="1" parent="1">
                    <mxGeometry x="493" y="1572.5" width="100" height="30" as="geometry"/>
                </mxCell>
                <mxCell id="65" style="edgeStyle=none;html=1;" edge="1" parent="1" source="66" target="63">
                    <mxGeometry relative="1" as="geometry"/>
                </mxCell>
                <mxCell id="66" value="memoria" style="rounded=0;whiteSpace=wrap;html=1;" vertex="1" parent="1">
                    <mxGeometry x="73" y="1570" width="60" height="35" as="geometry"/>
                </mxCell>
                <mxCell id="67" style="edgeStyle=none;html=1;" edge="1" parent="1" source="68" target="64">
                    <mxGeometry relative="1" as="geometry"/>
                </mxCell>
                <mxCell id="68" value="memoria" style="rounded=0;whiteSpace=wrap;html=1;" vertex="1" parent="1">
                    <mxGeometry x="643" y="1570" width="60" height="35" as="geometry"/>
                </mxCell>
                <mxCell id="69" value="Multi-tarefa cooperativa" style="text;html=1;strokeColor=none;fillColor=none;align=center;verticalAlign=middle;whiteSpace=wrap;rounded=0;" vertex="1" parent="1">
                    <mxGeometry x="271" y="1520" width="290" height="30" as="geometry"/>
                </mxCell>
                <mxCell id="70" value="" style="image;html=1;image=img/lib/clip_art/general/Star_128x128.png;fontSize=8;" vertex="1" parent="1">
                    <mxGeometry x="211.5" y="1690" width="58" height="50" as="geometry"/>
                </mxCell>
                <mxCell id="71" value="" style="image;html=1;image=img/lib/clip_art/telecommunication/Signal_tower_on_128x128.png;fontSize=8;" vertex="1" parent="1">
                    <mxGeometry x="511.5" y="1700" width="63" height="50" as="geometry"/>
                </mxCell>
                <mxCell id="72" value="Esta rodando" style="text;html=1;strokeColor=none;fillColor=none;align=center;verticalAlign=middle;whiteSpace=wrap;rounded=0;" vertex="1" parent="1">
                    <mxGeometry x="121.5" y="1700" width="108.5" height="30" as="geometry"/>
                </mxCell>
                <mxCell id="73" value="Esta aguardando" style="text;html=1;strokeColor=none;fillColor=none;align=center;verticalAlign=middle;whiteSpace=wrap;rounded=0;" vertex="1" parent="1">
                    <mxGeometry x="564.75" y="1700" width="108.5" height="30" as="geometry"/>
                </mxCell>
                <mxCell id="74" value="Esse cara aqui, nao pode afobar, ele nao pode roubar todo o tempo da aoperaÃ§ao se nao o outro processo nao vai ser executado nunca" style="text;html=1;strokeColor=none;fillColor=none;align=center;verticalAlign=middle;whiteSpace=wrap;rounded=0;" vertex="1" parent="1">
                    <mxGeometry x="151.5" y="1770" width="220" height="30" as="geometry"/>
                </mxCell>
                <mxCell id="75" value="Thread" style="rounded=0;whiteSpace=wrap;html=1;" vertex="1" parent="1">
                    <mxGeometry x="180" y="2012.5" width="120" height="60" as="geometry"/>
                </mxCell>
                <mxCell id="76" value="Thread" style="rounded=0;whiteSpace=wrap;html=1;" vertex="1" parent="1">
                    <mxGeometry x="480" y="2012.5" width="120" height="60" as="geometry"/>
                </mxCell>
                <mxCell id="77" value="Processo X" style="text;html=1;strokeColor=none;fillColor=none;align=center;verticalAlign=middle;whiteSpace=wrap;rounded=0;" vertex="1" parent="1">
                    <mxGeometry x="190" y="1972.5" width="100" height="30" as="geometry"/>
                </mxCell>
                <mxCell id="78" value="Processo Y" style="text;html=1;strokeColor=none;fillColor=none;align=center;verticalAlign=middle;whiteSpace=wrap;rounded=0;" vertex="1" parent="1">
                    <mxGeometry x="490" y="1972.5" width="100" height="30" as="geometry"/>
                </mxCell>
                <mxCell id="79" style="edgeStyle=none;html=1;" edge="1" parent="1" source="80" target="77">
                    <mxGeometry relative="1" as="geometry"/>
                </mxCell>
                <mxCell id="80" value="memoria" style="rounded=0;whiteSpace=wrap;html=1;" vertex="1" parent="1">
                    <mxGeometry x="70" y="1970" width="60" height="35" as="geometry"/>
                </mxCell>
                <mxCell id="81" style="edgeStyle=none;html=1;" edge="1" parent="1" source="82" target="78">
                    <mxGeometry relative="1" as="geometry"/>
                </mxCell>
                <mxCell id="82" value="memoria" style="rounded=0;whiteSpace=wrap;html=1;" vertex="1" parent="1">
                    <mxGeometry x="640" y="1970" width="60" height="35" as="geometry"/>
                </mxCell>
                <mxCell id="83" value="Multi-tarefa Preemptiva" style="text;html=1;strokeColor=none;fillColor=none;align=center;verticalAlign=middle;whiteSpace=wrap;rounded=0;" vertex="1" parent="1">
                    <mxGeometry x="268" y="1920" width="290" height="30" as="geometry"/>
                </mxCell>
                <mxCell id="84" value="" style="image;html=1;image=img/lib/clip_art/general/Star_128x128.png;fontSize=8;" vertex="1" parent="1">
                    <mxGeometry x="208.5" y="2090" width="58" height="50" as="geometry"/>
                </mxCell>
                <mxCell id="85" value="" style="image;html=1;image=img/lib/clip_art/telecommunication/Signal_tower_on_128x128.png;fontSize=8;" vertex="1" parent="1">
                    <mxGeometry x="508.5" y="2100" width="63" height="50" as="geometry"/>
                </mxCell>
                <mxCell id="86" value="Esta rodando" style="text;html=1;strokeColor=none;fillColor=none;align=center;verticalAlign=middle;whiteSpace=wrap;rounded=0;" vertex="1" parent="1">
                    <mxGeometry x="118.5" y="2100" width="108.5" height="30" as="geometry"/>
                </mxCell>
                <mxCell id="87" value="Esta aguardando" style="text;html=1;strokeColor=none;fillColor=none;align=center;verticalAlign=middle;whiteSpace=wrap;rounded=0;" vertex="1" parent="1">
                    <mxGeometry x="561.75" y="2100" width="108.5" height="30" as="geometry"/>
                </mxCell>
                <mxCell id="92" style="edgeStyle=none;html=1;entryX=0.75;entryY=1;entryDx=0;entryDy=0;fontSize=12;" edge="1" parent="1" source="89" target="84">
                    <mxGeometry relative="1" as="geometry"/>
                </mxCell>
                <mxCell id="93" style="edgeStyle=none;html=1;fontSize=12;" edge="1" parent="1" source="89" target="85">
                    <mxGeometry relative="1" as="geometry"/>
                </mxCell>
                <mxCell id="89" value="&lt;font style=&quot;font-size: 12px;&quot;&gt;Scheduler&lt;/font&gt;" style="shape=ext;double=1;rounded=1;whiteSpace=wrap;html=1;fontSize=8;" vertex="1" parent="1">
                    <mxGeometry x="260" y="2200" width="82" height="50" as="geometry"/>
                </mxCell>
                <mxCell id="91" value="Ele dita o tempo de cada thread, ele vai controlar o tempo de cada processo" style="text;html=1;strokeColor=none;fillColor=none;align=center;verticalAlign=middle;whiteSpace=wrap;rounded=0;fontSize=12;" vertex="1" parent="1">
                    <mxGeometry x="356" y="2210" width="200" height="30" as="geometry"/>
                </mxCell>
                <mxCell id="110" value="Thread 1&lt;br&gt;Thread 2&lt;br&gt;Thread 3" style="rounded=0;whiteSpace=wrap;html=1;" vertex="1" parent="1">
                    <mxGeometry x="211" y="2462.5" width="120" height="60" as="geometry"/>
                </mxCell>
                <mxCell id="112" value="Processo X" style="text;html=1;strokeColor=none;fillColor=none;align=center;verticalAlign=middle;whiteSpace=wrap;rounded=0;" vertex="1" parent="1">
                    <mxGeometry x="221" y="2422.5" width="100" height="30" as="geometry"/>
                </mxCell>
                <mxCell id="114" style="edgeStyle=none;html=1;" edge="1" parent="1" source="115" target="112">
                    <mxGeometry relative="1" as="geometry"/>
                </mxCell>
                <mxCell id="115" value="memoria" style="rounded=0;whiteSpace=wrap;html=1;" vertex="1" parent="1">
                    <mxGeometry x="101" y="2420" width="60" height="35" as="geometry"/>
                </mxCell>
                <mxCell id="118" value="Multithreading" style="text;html=1;strokeColor=none;fillColor=none;align=center;verticalAlign=middle;whiteSpace=wrap;rounded=0;" vertex="1" parent="1">
                    <mxGeometry x="299" y="2370" width="290" height="30" as="geometry"/>
                </mxCell>
                <mxCell id="126" value="Quando uma thread deixa de ser executada, dando a vez pra outra thread, ocorre a MUDANÃA DE CONTEXTO = CONTEXT SWITCHING" style="text;html=1;strokeColor=none;fillColor=none;align=center;verticalAlign=middle;whiteSpace=wrap;rounded=0;fontSize=12;" vertex="1" parent="1">
                    <mxGeometry x="46.5" y="2580" width="333.5" height="90" as="geometry"/>
                </mxCell>
                <mxCell id="127" value="No mesmo espaÃ§o da memorria" style="text;html=1;strokeColor=none;fillColor=none;align=center;verticalAlign=middle;whiteSpace=wrap;rounded=0;" vertex="1" parent="1">
                    <mxGeometry x="80.75" y="2540" width="118.5" height="30" as="geometry"/>
                </mxCell>
                <mxCell id="128" value="Tem custo, muda todo o contexto para q a thread use oq for necessario" style="text;html=1;strokeColor=none;fillColor=none;align=center;verticalAlign=middle;whiteSpace=wrap;rounded=0;" vertex="1" parent="1">
                    <mxGeometry x="73" y="2670" width="118.5" height="30" as="geometry"/>
                </mxCell>
                <mxCell id="129" value="Thread 1&lt;br&gt;Thread 2&lt;br&gt;Thread 3" style="rounded=0;whiteSpace=wrap;html=1;" vertex="1" parent="1">
                    <mxGeometry x="193.5" y="2892.5" width="120" height="60" as="geometry"/>
                </mxCell>
                <mxCell id="130" value="Processo X" style="text;html=1;strokeColor=none;fillColor=none;align=center;verticalAlign=middle;whiteSpace=wrap;rounded=0;" vertex="1" parent="1">
                    <mxGeometry x="203.5" y="2852.5" width="100" height="30" as="geometry"/>
                </mxCell>
                <mxCell id="131" style="edgeStyle=none;html=1;" edge="1" parent="1" source="132" target="130">
                    <mxGeometry relative="1" as="geometry"/>
                </mxCell>
                <mxCell id="132" value="memoria" style="rounded=0;whiteSpace=wrap;html=1;" vertex="1" parent="1">
                    <mxGeometry x="83.5" y="2850" width="60" height="35" as="geometry"/>
                </mxCell>
                <mxCell id="133" value="Multithreading - Race Condition" style="text;html=1;strokeColor=none;fillColor=none;align=center;verticalAlign=middle;whiteSpace=wrap;rounded=0;" vertex="1" parent="1">
                    <mxGeometry x="281.5" y="2800" width="290" height="30" as="geometry"/>
                </mxCell>
                <mxCell id="137" value="Arquivo" style="rounded=0;whiteSpace=wrap;html=1;" vertex="1" parent="1">
                    <mxGeometry x="221" y="3060" width="60" height="35" as="geometry"/>
                </mxCell>
                <mxCell id="138" value="" style="curved=1;endArrow=classic;html=1;fontSize=12;exitX=0;exitY=0.25;exitDx=0;exitDy=0;entryX=0;entryY=0.5;entryDx=0;entryDy=0;" edge="1" parent="1" source="129" target="137">
                    <mxGeometry width="50" height="50" relative="1" as="geometry">
                        <mxPoint x="390" y="3010" as="sourcePoint"/>
                        <mxPoint x="440" y="2960" as="targetPoint"/>
                        <Array as="points">
                            <mxPoint x="160" y="2950"/>
                            <mxPoint x="70" y="3000"/>
                            <mxPoint x="120" y="3070"/>
                        </Array>
                    </mxGeometry>
                </mxCell>
                <mxCell id="139" value="" style="curved=1;endArrow=classic;html=1;fontSize=12;exitX=1;exitY=0.5;exitDx=0;exitDy=0;entryX=1;entryY=0.5;entryDx=0;entryDy=0;" edge="1" parent="1" source="129" target="137">
                    <mxGeometry width="50" height="50" relative="1" as="geometry">
                        <mxPoint x="203.5" y="2917.5" as="sourcePoint"/>
                        <mxPoint x="231" y="3087.5" as="targetPoint"/>
                        <Array as="points">
                            <mxPoint x="360" y="2960"/>
                            <mxPoint x="380" y="3000"/>
                            <mxPoint x="370" y="3060"/>
                        </Array>
                    </mxGeometry>
                </mxCell>
                <mxCell id="140" value="" style="curved=1;endArrow=classic;html=1;fontSize=12;exitX=0;exitY=0.75;exitDx=0;exitDy=0;entryX=0;entryY=0;entryDx=0;entryDy=0;" edge="1" parent="1" source="129" target="137">
                    <mxGeometry width="50" height="50" relative="1" as="geometry">
                        <mxPoint x="323.5" y="2932.5" as="sourcePoint"/>
                        <mxPoint x="291" y="3087.5" as="targetPoint"/>
                        <Array as="points">
                            <mxPoint x="160" y="2980"/>
                            <mxPoint x="140" y="3020"/>
                            <mxPoint x="194" y="3020"/>
                        </Array>
                    </mxGeometry>
                </mxCell>
                <mxCell id="141" value="O Arquivo vai ficar uma mistura, pq nao da pra saber o resultado q vai ter nesse arquivo, multiplas threads tentando escrever no mesmo arquivo," style="text;html=1;strokeColor=none;fillColor=none;align=center;verticalAlign=middle;whiteSpace=wrap;rounded=0;fontSize=12;" vertex="1" parent="1">
                    <mxGeometry x="133" y="3120" width="240" height="30" as="geometry"/>
                </mxCell>
                <mxCell id="142" value="Thread 1&lt;br&gt;Thread 2&lt;br&gt;Thread 3" style="rounded=0;whiteSpace=wrap;html=1;" vertex="1" parent="1">
                    <mxGeometry x="230" y="3292.5" width="120" height="60" as="geometry"/>
                </mxCell>
                <mxCell id="143" value="Processo X" style="text;html=1;strokeColor=none;fillColor=none;align=center;verticalAlign=middle;whiteSpace=wrap;rounded=0;" vertex="1" parent="1">
                    <mxGeometry x="240" y="3252.5" width="100" height="30" as="geometry"/>
                </mxCell>
                <mxCell id="144" style="edgeStyle=none;html=1;" edge="1" parent="1" source="145" target="143">
                    <mxGeometry relative="1" as="geometry"/>
                </mxCell>
                <mxCell id="145" value="memoria" style="rounded=0;whiteSpace=wrap;html=1;" vertex="1" parent="1">
                    <mxGeometry x="120" y="3250" width="60" height="35" as="geometry"/>
                </mxCell>
                <mxCell id="146" value="Multithreading - Mutex (Mutual Exclusion)" style="text;html=1;strokeColor=none;fillColor=none;align=center;verticalAlign=middle;whiteSpace=wrap;rounded=0;" vertex="1" parent="1">
                    <mxGeometry x="303.5" y="3210" width="290" height="30" as="geometry"/>
                </mxCell>
                <mxCell id="147" value="Arquivo" style="rounded=0;whiteSpace=wrap;html=1;" vertex="1" parent="1">
                    <mxGeometry x="257.5" y="3460" width="60" height="35" as="geometry"/>
                </mxCell>
                <mxCell id="148" value="" style="curved=1;endArrow=classic;html=1;fontSize=12;exitX=0;exitY=0.25;exitDx=0;exitDy=0;entryX=0;entryY=0.5;entryDx=0;entryDy=0;" edge="1" parent="1" source="142" target="147">
                    <mxGeometry width="50" height="50" relative="1" as="geometry">
                        <mxPoint x="426.5" y="3410" as="sourcePoint"/>
                        <mxPoint x="476.5" y="3360" as="targetPoint"/>
                        <Array as="points">
                            <mxPoint x="196.5" y="3350"/>
                            <mxPoint x="106.5" y="3400"/>
                            <mxPoint x="156.5" y="3470"/>
                        </Array>
                    </mxGeometry>
                </mxCell>
                <mxCell id="151" value="Ops, estou escrevendo, vcs duas esperem ai eu terminar de escrever, dps vcs decidem qm vem dps" style="text;html=1;strokeColor=none;fillColor=none;align=center;verticalAlign=middle;whiteSpace=wrap;rounded=0;fontSize=12;" vertex="1" parent="1">
                    <mxGeometry x="166" y="3410" width="240" height="30" as="geometry"/>
                </mxCell>
                <mxCell id="153" value="" style="image;html=1;image=img/lib/clip_art/computers/Antivirus_128x128.png;fontSize=12;" vertex="1" parent="1">
                    <mxGeometry x="273.5" y="3450" width="30" height="20" as="geometry"/>
                </mxCell>
                <mxCell id="154" value="Thread 1&lt;br&gt;Thread 2&lt;br&gt;Thread 3" style="rounded=0;whiteSpace=wrap;html=1;" vertex="1" parent="1">
                    <mxGeometry x="256.5" y="3632.5" width="120" height="60" as="geometry"/>
                </mxCell>
                <mxCell id="155" value="Processo X" style="text;html=1;strokeColor=none;fillColor=none;align=center;verticalAlign=middle;whiteSpace=wrap;rounded=0;" vertex="1" parent="1">
                    <mxGeometry x="266.5" y="3592.5" width="100" height="30" as="geometry"/>
                </mxCell>
                <mxCell id="156" style="edgeStyle=none;html=1;" edge="1" parent="1" source="157" target="155">
                    <mxGeometry relative="1" as="geometry"/>
                </mxCell>
                <mxCell id="157" value="memoria" style="rounded=0;whiteSpace=wrap;html=1;" vertex="1" parent="1">
                    <mxGeometry x="146.5" y="3590" width="60" height="35" as="geometry"/>
                </mxCell>
                <mxCell id="158" value="Multithreading - Dead-Lock" style="text;html=1;strokeColor=none;fillColor=none;align=center;verticalAlign=middle;whiteSpace=wrap;rounded=0;" vertex="1" parent="1">
                    <mxGeometry x="331.5" y="3550" width="170" height="30" as="geometry"/>
                </mxCell>
                <mxCell id="159" value="Arquivo 1" style="rounded=0;whiteSpace=wrap;html=1;" vertex="1" parent="1">
                    <mxGeometry x="284" y="3800" width="60" height="35" as="geometry"/>
                </mxCell>
                <mxCell id="160" value="" style="curved=1;endArrow=classic;html=1;fontSize=12;exitX=0;exitY=0.25;exitDx=0;exitDy=0;entryX=0;entryY=0.5;entryDx=0;entryDy=0;" edge="1" parent="1" source="154" target="159">
                    <mxGeometry width="50" height="50" relative="1" as="geometry">
                        <mxPoint x="453" y="3750" as="sourcePoint"/>
                        <mxPoint x="503" y="3700" as="targetPoint"/>
                        <Array as="points">
                            <mxPoint x="220" y="3648"/>
                            <mxPoint x="220" y="3730"/>
                            <mxPoint x="240" y="3800"/>
                        </Array>
                    </mxGeometry>
                </mxCell>
                <mxCell id="162" value="" style="image;html=1;image=img/lib/clip_art/computers/Antivirus_128x128.png;fontSize=12;" vertex="1" parent="1">
                    <mxGeometry x="300" y="3790" width="30" height="20" as="geometry"/>
                </mxCell>
                <mxCell id="163" value="Arquivo 2" style="rounded=0;whiteSpace=wrap;html=1;" vertex="1" parent="1">
                    <mxGeometry x="414" y="3800" width="60" height="35" as="geometry"/>
                </mxCell>
                <mxCell id="164" value="" style="image;html=1;image=img/lib/clip_art/computers/Antivirus_128x128.png;fontSize=12;" vertex="1" parent="1">
                    <mxGeometry x="433.5" y="3790" width="30" height="20" as="geometry"/>
                </mxCell>
                <mxCell id="165" value="" style="curved=1;endArrow=classic;html=1;fontSize=12;exitX=1;exitY=0.5;exitDx=0;exitDy=0;entryX=1;entryY=0.25;entryDx=0;entryDy=0;" edge="1" parent="1" source="154" target="163">
                    <mxGeometry width="50" height="50" relative="1" as="geometry">
                        <mxPoint x="266.5" y="3657.5" as="sourcePoint"/>
                        <mxPoint x="294" y="3827.5" as="targetPoint"/>
                        <Array as="points">
                            <mxPoint x="460" y="3650"/>
                            <mxPoint x="470" y="3710"/>
                            <mxPoint x="510" y="3750"/>
                        </Array>
                    </mxGeometry>
                </mxCell>
                <mxCell id="172" style="edgeStyle=none;html=1;entryX=0.435;entryY=0;entryDx=0;entryDy=0;entryPerimeter=0;fontSize=12;" edge="1" parent="1" source="168" target="170">
                    <mxGeometry relative="1" as="geometry"/>
                </mxCell>
                <mxCell id="168" value="Supor q pra thread 1 terminar, ela precisar ler a info que ta no arquivo 2, mas esta lockado..." style="text;html=1;strokeColor=none;fillColor=none;align=center;verticalAlign=middle;whiteSpace=wrap;rounded=0;" vertex="1" parent="1">
                    <mxGeometry x="186" y="3860" width="170" height="30" as="geometry"/>
                </mxCell>
                <mxCell id="171" style="edgeStyle=none;html=1;entryX=0.5;entryY=0;entryDx=0;entryDy=0;fontSize=12;" edge="1" parent="1" source="169" target="170">
                    <mxGeometry relative="1" as="geometry"/>
                </mxCell>
                <mxCell id="169" value="Neste memso momento, a thread 2 precisa ler o conteudo do arquivo um pra terminar" style="text;html=1;strokeColor=none;fillColor=none;align=center;verticalAlign=middle;whiteSpace=wrap;rounded=0;" vertex="1" parent="1">
                    <mxGeometry x="419" y="3870" width="170" height="30" as="geometry"/>
                </mxCell>
                <mxCell id="170" value="dead-lock" style="text;html=1;strokeColor=none;fillColor=none;align=center;verticalAlign=middle;whiteSpace=wrap;rounded=0;" vertex="1" parent="1">
                    <mxGeometry x="293" y="3940" width="170" height="30" as="geometry"/>
                </mxCell>
                <mxCell id="173" value="Thread 1&lt;br&gt;Thread 2&lt;br&gt;Thread 3" style="rounded=0;whiteSpace=wrap;html=1;" vertex="1" parent="1">
                    <mxGeometry x="295.25" y="4112.5" width="120" height="60" as="geometry"/>
                </mxCell>
                <mxCell id="174" value="Processo X" style="text;html=1;strokeColor=none;fillColor=none;align=center;verticalAlign=middle;whiteSpace=wrap;rounded=0;" vertex="1" parent="1">
                    <mxGeometry x="305.25" y="4072.5" width="100" height="30" as="geometry"/>
                </mxCell>
                <mxCell id="175" style="edgeStyle=none;html=1;" edge="1" parent="1" source="176" target="174">
                    <mxGeometry relative="1" as="geometry"/>
                </mxCell>
                <mxCell id="176" value="memoria" style="rounded=0;whiteSpace=wrap;html=1;" vertex="1" parent="1">
                    <mxGeometry x="185.25" y="4070" width="60" height="35" as="geometry"/>
                </mxCell>
                <mxCell id="177" value="Paralelismo" style="text;html=1;strokeColor=none;fillColor=none;align=center;verticalAlign=middle;whiteSpace=wrap;rounded=0;" vertex="1" parent="1">
                    <mxGeometry x="370.25" y="4030" width="170" height="30" as="geometry"/>
                </mxCell>
                <mxCell id="178" value="Arquivo 1" style="rounded=0;whiteSpace=wrap;html=1;" vertex="1" parent="1">
                    <mxGeometry x="322.75" y="4280" width="60" height="35" as="geometry"/>
                </mxCell>
                <mxCell id="179" value="" style="curved=1;endArrow=classic;html=1;fontSize=12;exitX=0;exitY=0.25;exitDx=0;exitDy=0;entryX=0;entryY=0.5;entryDx=0;entryDy=0;" edge="1" parent="1" source="173" target="178">
                    <mxGeometry width="50" height="50" relative="1" as="geometry">
                        <mxPoint x="491.75" y="4230" as="sourcePoint"/>
                        <mxPoint x="541.75" y="4180" as="targetPoint"/>
                        <Array as="points">
                            <mxPoint x="258.75" y="4128"/>
                            <mxPoint x="258.75" y="4210"/>
                            <mxPoint x="278.75" y="4280"/>
                        </Array>
                    </mxGeometry>
                </mxCell>
                <mxCell id="181" value="Arquivo 2" style="rounded=0;whiteSpace=wrap;html=1;" vertex="1" parent="1">
                    <mxGeometry x="452.75" y="4280" width="60" height="35" as="geometry"/>
                </mxCell>
                <mxCell id="183" value="" style="curved=1;endArrow=classic;html=1;fontSize=12;exitX=1;exitY=0.5;exitDx=0;exitDy=0;entryX=1;entryY=0.25;entryDx=0;entryDy=0;" edge="1" parent="1" source="173" target="181">
                    <mxGeometry width="50" height="50" relative="1" as="geometry">
                        <mxPoint x="305.25" y="4137.5" as="sourcePoint"/>
                        <mxPoint x="332.75" y="4307.5" as="targetPoint"/>
                        <Array as="points">
                            <mxPoint x="498.75" y="4130"/>
                            <mxPoint x="508.75" y="4190"/>
                            <mxPoint x="548.75" y="4230"/>
                        </Array>
                    </mxGeometry>
                </mxCell>
                <mxCell id="191" value="enquanto um nao precisa do arquivo do outro, eles conseguem rodar 100% em paralelo, apesar de utilizar o memso momento na memoria, nao precisam acessar o mesmo espaÃ§o" style="text;html=1;strokeColor=none;fillColor=none;align=center;verticalAlign=middle;whiteSpace=wrap;rounded=0;fontSize=12;" vertex="1" parent="1">
                    <mxGeometry x="510" y="4127.5" width="273.5" height="30" as="geometry"/>
                </mxCell>
            </root>
        </mxGraphModel>
    </diagram>
</mxfile>